Title:
The Hunt Aka Jagten

Country:
Denmark/2012

Language:
Danish, English, Polish

No Subtitle

Director:
Thomas Vinterberg

Writers:
Tobias Lindholm, Thomas Vinterberg

Stars:
Mads Mikkelsen, Thomas Bo Larsen, Annika Wedderkopp

Synopsis:
A teacher lives a lonely life, all the while struggling over his son's custody. His life slowly gets better as he finds love and receives good news from his son, but his new luck is about to be brutally shattered by an innocent little lie. 

Trivia:

* Nominated BAFTA Film Award 2012, Film Not in the English Language

* Won Best Actor Cannes Film Festival 2012, Mads Mikkelsen 

Imdb: 
http://www.imdb.com/title/tt2106476

Trailer: 
http://www.bandes-annonces.fr/film-2012/bande-annonce-lachasse.html


Media Info:

General
Complete name                            : The.Hunt.[Jagten].2012.DVDRip.XviD.AC3.HORiZON-ArtSubs
Format                                   : AVI
Format/Info                              : Audio Video Interleave
Format profile                           : OpenDML
File size                                : 1.34 GiB
Duration                                 : 1h 55mn
Overall bit rate                         : 1 657 Kbps
Movie name                               : Ohota.2012.P.HDRip.IRONCLUB_Epidemz.Net
Writing application                      : Lavf52.94.0
Original source form/Name                : Movie

Video
ID                                       : 0
Format                                   : MPEG-4 Visual
Format profile                           : Simple@L3
Format settings, BVOP                    : No
Format settings, QPel                    : No
Format settings, GMC                     : No warppoints
Format settings, Matrix                  : Default (H.263)
Codec ID                                 : XVID
Codec ID/Hint                            : XviD
Duration                                 : 1h 55mn
Bit rate                                 : 1 421 Kbps
Width                                    : 720 pixels
Height                                   : 304 pixels
Display aspect ratio                     : 2.35:1
Frame rate                               : 24.000 fps
Color space                              : YUV
Chroma subsampling                       : 4:2:0
Bit depth                                : 8 bits
Scan type                                : Progressive
Compression mode                         : Lossy
Bits/(Pixel*Frame)                       : 0.270
Stream size                              : 1.15 GiB (86%)
Writing library                          : XviD 1.2.1 (UTC 2008-12-04)

Audio
ID                                       : 1
Format                                   : AC-3
Format/Info                              : Audio Coding 3
Mode extension                           : CM (complete main)
Format settings, Endianness              : Big
Codec ID                                 : 2000
Duration                                 : 1h 55mn
Bit rate mode                            : Constant
Bit rate                                 : 224 Kbps
Channel(s)                               : 2 channels
Channel positions                        : Front: L R
Sampling rate                            : 48.0 KHz
Bit depth                                : 16 bits
Compression mode                         : Lossy
Stream size                              : 185 MiB (14%)
Alignment                                : Aligned on interleaves
Interleave, duration                     : 32 ms (0.77 video frame)

